<svg width="200" height="200" viewBox="0 0 200 200" fill="none" xmlns="http://www.w3.org/2000/svg">
<rect width="200" height="200" fill="none"/>
<path d="M156.633 104.602C156.594 101.098 155.774 97.638 154.496 94.388C153.51 91.872 152.365 89.422 151.247 86.963C142.35 67.5733 133.013 48.3884 123.244 29.423C121.87 26.773 120.525 24.107 119.074 21.498C117.648 18.953 115.988 16.503 113.839 14.511C110.41 11.242 105.809 9.29299 101.087 8.99899H98.9129C94.0519 9.23899 89.3069 11.279 85.8189 14.679C83.7489 16.64 82.1469 19.031 80.7589 21.505C79.3269 24.071 78.0009 26.695 76.6529 29.303C70.0979 42.0273 63.7358 54.8501 57.5689 67.767C53.8929 75.497 50.2479 83.24 46.7419 91.046C45.2879 94.298 43.9729 97.661 43.4779 101.211C42.5609 107.205 43.8759 113.496 47.0779 118.643C49.8379 123.114 53.9809 126.717 58.8099 128.798C62.585 130.427 66.688 131.154 70.7929 130.919C76.2759 130.628 81.5629 128.658 86.2019 125.783C91.3769 122.607 95.8029 118.383 99.9239 113.961C103.756 118.091 107.857 122.032 112.591 125.121C117.163 128.129 122.376 130.307 127.859 130.825C133.814 131.447 139.984 129.971 144.982 126.656C149.403 123.727 152.826 119.52 154.796 114.597C156.065 111.42 156.689 108.022 156.633 104.602V104.602ZM99.9489 102.29C98.4539 100.53 97.1369 98.626 95.8139 96.736C93.5879 93.471 91.5639 90.058 89.9359 86.452C88.6019 83.46 87.5309 80.319 87.1129 77.057C86.8079 74.469 86.8809 71.769 87.8309 69.312C88.6809 67.008 90.3149 65.012 92.3849 63.693C97.3169 60.51 104.347 60.854 108.816 64.715C111.078 66.642 112.429 69.491 112.769 72.419C113.214 76.311 112.329 80.22 110.97 83.85C108.404 90.586 104.342 96.624 99.9489 102.29V102.29ZM148.342 110.545C147.024 115.094 143.856 119.068 139.711 121.361C136.037 123.416 131.652 124.12 127.51 123.428C122.235 122.607 117.502 119.808 113.401 116.504C110.387 114.082 107.673 111.314 105.073 108.461C109.178 103.269 113.045 97.837 115.999 91.899C118.577 86.699 120.536 81.065 120.722 75.218C120.827 71.508 120.129 67.73 118.396 64.427C116.127 60.014 112.062 56.624 107.402 54.984C103.049 53.429 98.2099 53.29 93.7689 54.556C89.5809 55.741 85.7559 58.258 83.1349 61.747C80.8279 64.789 79.5129 68.529 79.2079 72.322C78.7389 77.785 80.1079 83.235 82.1789 88.257C85.2579 95.595 89.7769 102.237 94.7679 108.398C92.5175 110.997 90.0753 113.424 87.4619 115.658C83.4099 119.087 78.7739 122.072 73.5219 123.208C69.2759 124.161 64.6949 123.687 60.8009 121.717C56.2399 119.444 52.7379 115.163 51.4169 110.242C50.4069 106.627 50.6309 102.724 51.8319 99.183C52.8309 96.253 54.1859 93.461 55.4539 90.642C64.2559 71.4613 73.4879 52.4808 83.1429 33.715C84.5829 30.922 86.0009 28.116 87.5249 25.369C88.7689 23.156 90.2159 20.983 92.2609 19.429C94.4721 17.7064 97.2074 16.7946 100.01 16.846C102.89 16.812 105.753 17.873 107.956 19.724C110.132 21.531 111.602 24.003 112.922 26.467C115.906 32.072 118.772 37.742 121.639 43.406C129.821 59.6007 137.684 75.9552 145.221 92.46C146.36 95.024 147.579 97.568 148.346 100.274C149.283 103.611 149.314 107.215 148.342 110.545V110.545ZM57.2489 146.038C59.7129 145.48 62.4049 147.105 63.0449 149.551C63.8399 152.054 62.2599 154.964 59.7439 155.688C57.2859 156.552 54.3669 155.05 53.5529 152.596C52.7809 150.528 53.6069 148.032 55.4409 146.809C55.9878 146.437 56.6019 146.175 57.2489 146.038V146.038ZM73.8909 162.195C75.3749 160.582 77.4659 159.571 79.6199 159.249C81.0569 159.109 82.5071 159.2 83.9149 159.521C83.8969 161.792 83.9109 164.06 83.9069 166.332C81.6979 165.761 79.3059 165.643 77.1379 166.441C75.9603 166.87 74.8989 167.567 74.0379 168.478C73.8519 168.637 73.8969 168.894 73.8799 169.115C73.8929 175.46 73.8699 181.806 73.8889 188.15C73.8669 188.394 73.9259 188.669 73.8179 188.898C71.3679 188.955 68.9149 188.909 66.4639 188.918C66.4649 179.245 66.4559 169.57 66.4699 159.897C68.5339 159.906 70.5989 159.889 72.6639 159.901C73.1179 159.875 73.6019 160.108 73.7679 160.551C73.9309 161.081 73.8789 161.646 73.8909 162.195V162.195ZM126.719 162.221C128.68 160.192 131.522 159.194 134.311 159.188C137.258 159.114 140.278 159.985 142.555 161.897C144.069 163.085 145.161 164.728 145.67 166.584C146.318 168.845 146.26 171.22 146.252 173.549C146.254 178.673 146.252 183.798 146.254 188.923C143.783 188.919 141.313 188.939 138.842 188.912C138.844 183.791 138.842 178.67 138.844 173.547C138.844 171.644 138.934 169.591 137.922 167.896C137.217 166.68 135.822 166.074 134.477 165.933C131.915 165.523 129.239 166.542 127.473 168.41C127.285 168.598 127.124 168.836 127.145 169.12C127.121 169.912 127.241 170.707 127.173 171.5C127.076 172.577 127.227 173.654 127.192 174.734C127.16 176.77 127.158 178.807 127.184 180.843C127.044 183.536 127.288 186.238 127.127 188.928C124.666 188.92 122.207 188.926 119.746 188.925C119.745 179.247 119.728 169.571 119.755 159.894C121.658 159.909 123.565 159.894 125.467 159.9C125.959 159.869 126.497 160.144 126.624 160.644C126.74 161.158 126.705 161.693 126.719 162.221V162.221ZM54.5389 188.924C54.5379 179.247 54.5239 169.571 54.5439 159.895C56.9959 159.901 59.4469 159.899 61.8979 159.897C61.9169 169.573 61.9029 179.249 61.9049 188.923C59.4499 188.923 56.9949 188.921 54.5389 188.924V188.924ZM49.9719 159.898C48.0289 159.894 46.0859 159.904 44.1409 159.887C43.6269 159.884 42.9709 159.909 42.7199 160.449C42.4949 161.004 42.5809 161.62 42.5609 162.204C40.9439 160.483 38.6649 159.461 36.3269 159.239C32.7169 158.915 28.9759 159.916 26.0769 162.108C23.6889 163.872 21.9239 166.423 20.9999 169.233C20.5549 170.55 20.3319 171.932 20.1899 173.313V175.3C20.3969 179.459 22.2469 183.573 25.4739 186.254C27.9079 188.316 31.0359 189.468 34.2049 189.669H35.8569C38.3689 189.5 40.8489 188.461 42.5629 186.589C42.5789 187.176 42.4959 187.798 42.7159 188.36C42.9449 188.815 43.4849 188.94 43.9539 188.922C45.9589 188.917 47.9669 188.924 49.9739 188.913C49.9739 179.244 49.9799 169.571 49.9719 159.898V159.898ZM42.3339 179.881C40.8339 181.677 38.4909 182.739 36.1509 182.665C33.6429 182.684 31.0399 181.723 29.4149 179.756C27.8299 177.878 27.3509 175.266 27.7109 172.879C27.9799 170.947 28.9649 169.094 30.5209 167.895C31.9319 166.781 33.7109 166.207 35.4919 166.083C38.1449 165.851 40.9419 167.021 42.5379 169.163C42.6279 172.317 42.5399 175.479 42.5799 178.638C42.5539 179.054 42.6689 179.555 42.3339 179.881V179.881ZM115.51 168.201C114.368 165.408 112.342 162.98 109.774 161.396C107.129 159.75 103.957 159.006 100.856 159.217C98.4069 159.378 96.0139 160.423 94.3139 162.209C94.3039 156.788 94.3139 151.37 94.3089 145.949C91.8369 145.95 89.3629 145.938 86.8909 145.956C86.9039 160.274 86.8699 174.599 86.9089 188.916C88.9559 188.921 91.0049 188.926 93.0529 188.921C93.5619 188.961 94.1109 188.681 94.2509 188.166C94.3519 187.642 94.3149 187.101 94.3179 186.57C96.0359 188.481 98.5599 189.518 101.098 189.671H102.612C106.721 189.465 110.75 187.539 113.329 184.31C116.941 179.881 117.646 173.443 115.51 168.201V168.201ZM106.865 180.415C105.209 181.952 102.917 182.689 100.679 182.667C98.3439 182.721 96.0109 181.648 94.5319 179.841C94.3489 179.653 94.2889 179.399 94.3039 179.149C94.3059 175.827 94.3089 172.506 94.3039 169.186C95.7239 167.334 97.9969 166.18 100.322 166.061C102.679 165.992 105.152 166.684 106.882 168.346C108.53 169.875 109.334 172.168 109.282 174.389C109.33 176.607 108.504 178.885 106.865 180.415V180.415ZM176.503 164.609C173.359 160.605 167.984 158.585 162.973 159.334C160.88 159.664 158.897 160.668 157.434 162.208C157.418 156.79 157.434 151.372 157.426 145.952C154.958 145.949 152.492 145.947 150.026 145.954C150.024 160.273 150.026 174.596 150.026 188.917C151.971 188.932 153.921 188.914 155.866 188.932C156.377 188.94 157.016 188.899 157.278 188.377C157.505 187.813 157.42 187.184 157.436 186.591C159.141 188.459 161.61 189.491 164.108 189.673H165.774C169.838 189.452 173.811 187.555 176.385 184.375C178.487 181.839 179.621 178.591 179.809 175.32V173.379C179.576 170.221 178.51 167.085 176.503 164.609V164.609ZM170.727 179.581C168.77 182.1 165.317 183.037 162.254 182.548C160.389 182.176 158.58 181.169 157.477 179.597C157.354 178.378 157.465 177.145 157.428 175.92C157.454 173.667 157.372 171.407 157.465 169.158C158.587 167.611 160.383 166.619 162.231 166.209C165.651 165.577 169.627 166.932 171.356 170.09C172.93 173.013 172.773 176.919 170.727 179.581Z" fill="#9C9C9C"/>
</svg>
