<svg width="960" height="540" viewBox="0 0 960 540" fill="none" xmlns="http://www.w3.org/2000/svg">
<rect width="960" height="540" fill="none"/>
<g clip-path="url(#clip0_0_1)">
<path d="M-304 542L962 542L962 -3.98889L-304 -3.98889V542Z" fill="none" stroke="black"/>
<path d="M322.406 542H294.713V518.745H471.425V494.479H470.106V471.224H670.556V446.958H401.531V423.702L313.175 423.702V399.436L510.987 399.436V376.181H491.206V351.915L206.356 351.915V328.66L681.106 328.66V304.394L252.512 304.394V281.139L609.894 281.139V256.872H371.2V233.617H551.869V209.351H459.556V186.096H559.781V161.83H599.344V138.575H365.925V114.309L224.819 114.309V91.0537L721.987 91.0537V66.7875H474.062V43.5324L243.281 43.5324V19.2662H418.675V-3.98883L962 -3.98883V19.2662V43.5324V66.7875L962 91.0537V114.309V138.575V161.83V186.096V209.351V233.617V256.872V281.139V304.394V328.66V351.915V376.181V399.436V423.702V446.958V471.224V494.479V518.745V542L322.406 542V542Z" fill="white"/>
<path d="M512.306 542L479.337 542V518.745L678.469 518.745V494.479H396.256V471.224H413.4V446.958H475.381V423.702L675.831 423.702V399.436H636.269V376.181L596.706 376.181V351.915L700.887 351.915V328.66L305.262 328.66V304.394L388.344 304.394V281.139H678.469V256.872H385.706V233.617H675.831V209.351H551.869V186.096H600.662V161.83H480.656V138.575H438.456V114.309H419.994V91.0537H555.825V66.7875H439.775V43.5324H640.225V19.2662L460.875 19.2662V-3.98883L962 -3.98883V19.2662V43.5324V66.7875L962 91.0537V114.309V138.575V161.83V186.096V209.351V233.617V256.872V281.139V304.394V328.66V351.915V376.181V399.436V423.702V446.958V471.224V494.479V518.745V542H512.306Z" fill="#F7F1E8"/>
<path d="M702.206 542H514.944V518.745L445.05 518.745V494.479L770.781 494.479V471.224H692.975V446.958H677.15V423.702H806.388V399.436H708.8V376.181L516.263 376.181V351.915L707.481 351.915V328.66L526.812 328.66V304.394L807.706 304.394V281.139L408.125 281.139V256.872H430.544V233.617H547.913V209.351L783.969 209.351V186.096L409.444 186.096V161.83H598.025V138.575H615.169V114.309H694.294V91.0537H500.437V66.7875H714.075V43.5324H497.8V19.2662L571.65 19.2662V-3.98883H962V19.2662V43.5324V66.7875L962 91.0537V114.309V138.575V161.83V186.096V209.351V233.617V256.872V281.139V304.394V328.66V351.915V376.181V399.436V423.702V446.958V471.224V494.479V518.745V542H702.206Z" fill="#EFE3D2"/>
<path d="M584.837 542H740.45V518.745H773.419V494.479L629.675 494.479V471.224H492.525V446.958L754.956 446.958V423.702L572.969 423.702V399.436H576.925V376.181L634.95 376.181V351.915H685.062V328.66L559.781 328.66V304.394H537.362V281.139L772.1 281.139V256.872L649.456 256.872V233.617H683.744V209.351L830.125 209.351V186.096L657.369 186.096V161.83H586.156V138.575H623.081V114.309L797.156 114.309V91.0537V66.7875H793.2V43.5324H760.231V19.2662H678.469V-3.98883H962V19.2662V43.5324V66.7875L962 91.0537V114.309V138.575V161.83V186.096V209.351V233.617V256.872V281.139V304.394V328.66V351.915V376.181V399.436V423.702V446.958V471.224V494.479V518.745V542H584.837V542Z" fill="#E6D5BC"/>
<path d="M739.131 542H685.062V518.745H737.812V494.479H857.819V471.224H812.981V446.958L640.225 446.958V423.702H592.75V399.436L761.55 399.436V376.181H739.131V351.915H764.188V328.66H880.238V304.394H776.056V281.139H868.369V256.872H865.731V233.617H874.962V209.351L706.163 209.351V186.096L840.675 186.096V161.83L718.031 161.83V138.575H723.306V114.309L849.906 114.309V91.0537H824.85V66.7875L644.181 66.7875V43.5324L761.55 43.5324V19.2662H645.5V-3.98883H962V19.2662V43.5324V66.7875L962 91.0537V114.309V138.575V161.83V186.096V209.351V233.617V256.872V281.139V304.394V328.66V351.915V376.181V399.436V423.702V446.958V471.224V494.479V518.745V542H739.131V542Z" fill="#DDC7A6"/>
<path d="M885.512 540.989H686.381V517.734H807.706V493.468L682.425 493.468V470.213H811.663V445.946H718.031V422.691H806.387V398.425H793.2V375.17H703.525V350.904H861.775V327.649H760.231V303.383H877.6V280.128H766.825V255.861H864.413V232.606H855.181V208.34H921.119V185.085H885.512V160.819H787.925V137.564H836.719V113.298H882.875V90.0426H770.781V65.7764H872.325V42.5213H823.531V18.2552H834.081V-4.99994H962V18.2552V42.5213V65.7764L962 90.0426V113.298V137.564V160.819V185.085V208.34V232.606V255.861V280.128V303.383V327.649V350.904V375.17V398.425V422.691V445.946V470.213V493.468V517.734V540.989H885.512V540.989Z" fill="#D4B990"/>
<path d="M847.269 542H926.394V518.745H905.294V494.479H780.012V471.224H797.156V446.958H868.369V423.702H929.031V399.436H906.613V376.181H897.381V351.915H860.456V328.66H951.45V304.394H814.3V281.139H818.256V256.872H782.65V233.617H797.156V209.351H865.731V186.096H798.475V161.83H803.75V138.575H921.119V114.309H790.562V91.0537H841.994V66.7875H873.644V43.5324H816.938V19.2662H886.831V-3.98883H962V19.2662V43.5324V66.7875L962 91.0537V114.309V138.575V161.83V186.096V209.351V233.617V256.872V281.139V304.394V328.66V351.915V376.181V399.436V423.702V446.958V471.224V494.479V518.745V542H847.269V542Z" fill="#CAAC7B"/>
</g>
<defs>
<clipPath id="clip0_0_1">
<rect width="960" height="540" fill="white"/>
</clipPath>
</defs>
</svg>
