<svg width="990" height="990" viewBox="0 0 990 990" fill="none" xmlns="http://www.w3.org/2000/svg">
<rect width="990" height="990" fill="none"/>
<g clip-path="url(#clip0_0_1)">
<path d="M11.208 469.804C9.143 469.804 7.504 471.401 7.237 473.678L0 528.65L7.237 582.675C7.504 584.952 9.142 586.538 11.208 586.538C13.208 586.538 14.837 584.963 15.156 582.695L23.734 528.649L15.156 473.667C14.847 471.4 13.198 469.804 11.208 469.804ZM51.907 439.769C51.566 437.407 49.874 435.778 47.788 435.778C45.691 435.778 43.956 437.46 43.669 439.769C43.669 439.79 33.941 528.65 33.941 528.65L43.669 615.562C43.946 617.893 45.681 619.575 47.788 619.575C49.863 619.575 51.556 617.936 51.896 615.584L62.964 528.65L51.907 439.769ZM205.211 357.785C201.22 357.785 197.92 361.052 197.729 365.203L189.981 528.724L197.729 634.4C197.931 638.529 201.22 641.786 205.211 641.786C209.181 641.786 212.47 638.518 212.704 634.379V634.411L221.463 528.724L212.704 365.203C212.469 361.052 209.18 357.785 205.211 357.785ZM125.866 414.619C122.801 414.619 120.3 417.067 120.054 420.334L111.327 528.681L120.054 633.505C120.288 636.751 122.8 639.199 125.866 639.199C128.899 639.199 131.4 636.751 131.667 633.505L141.586 528.681L131.667 420.312C131.4 417.067 128.899 414.619 125.866 414.619ZM285.844 641.776C290.793 641.776 294.816 637.784 295.018 632.675L302.618 528.777L295.029 311.071C294.827 305.962 290.803 301.971 285.855 301.971C280.863 301.971 276.83 305.973 276.669 311.082L269.932 528.766L276.669 632.707C276.829 637.774 280.862 641.776 285.844 641.776ZM450.919 642.266C457.731 642.266 463.351 636.657 463.478 629.76L468.779 528.841L463.477 277.407C463.36 270.521 457.73 264.902 450.918 264.902C444.096 264.902 438.466 270.511 438.359 277.418L433.623 528.756C433.623 528.916 438.359 629.823 438.359 629.823C438.467 636.656 444.107 642.266 450.919 642.266ZM367.753 641.872C373.682 641.872 378.46 637.114 378.62 631.048V631.122L385.069 528.799L378.609 309.518C378.449 303.451 373.671 298.705 367.742 298.705C361.771 298.705 356.993 303.452 356.865 309.518L351.129 528.81L356.876 631.112C357.004 637.114 361.782 641.872 367.753 641.872ZM165.384 640.914C168.907 640.914 171.76 638.093 172.026 634.379L181.371 528.682L172.026 428.136C171.771 424.422 168.919 421.622 165.384 421.622C161.809 421.622 158.956 424.442 158.733 428.179L150.505 528.682L158.733 634.369C158.967 638.093 161.808 640.914 165.384 640.914ZM86.668 635.124C89.243 635.124 91.329 633.091 91.627 630.281L102.121 528.66L91.637 423.208C91.328 420.388 89.242 418.354 86.667 418.354C84.059 418.354 81.973 420.398 81.707 423.208L72.469 528.66L81.707 630.26C81.963 633.08 84.049 635.124 86.668 635.124ZM409.177 305.867C402.738 305.867 397.575 310.987 397.448 317.543L392.212 528.82L397.448 630.483C397.576 636.954 402.727 642.074 409.177 642.074C415.605 642.074 420.736 636.965 420.884 630.409V630.494L426.759 528.831L420.884 317.521C420.735 310.987 415.604 305.867 409.177 305.867ZM245.378 641.989C249.827 641.989 253.499 638.359 253.712 633.729L261.886 528.755L253.712 327.834C253.488 323.193 249.827 319.575 245.378 319.575C240.887 319.575 237.226 323.204 237.034 327.834L229.797 528.755L237.045 633.772C237.225 638.359 240.886 641.989 245.378 641.989ZM336.654 632.08V632.026L343.678 528.788L336.654 303.749C336.483 298.162 332.077 293.777 326.638 293.777C321.167 293.777 316.761 298.151 316.613 303.749L310.376 528.777L316.623 632.069C316.772 637.603 321.179 641.977 326.639 641.977C332.088 641.977 336.473 637.603 336.655 632.037V632.08H336.654ZM867.938 399.069C851.26 399.069 835.349 402.443 820.853 408.52C811.167 298.811 719.168 212.75 606.947 212.75C579.488 212.75 552.72 218.157 529.082 227.299C519.897 230.854 517.449 234.515 517.364 241.614V627.96C517.46 635.41 523.239 641.615 530.509 642.35C530.818 642.382 865.757 642.552 867.929 642.552C935.151 642.552 989.655 588.048 989.655 520.816C989.654 453.583 935.161 399.069 867.938 399.069ZM492.48 241.274C485.168 241.274 479.166 247.277 479.059 254.652L473.567 528.873L479.07 628.397C479.166 635.667 485.169 641.659 492.48 641.659C499.77 641.659 505.773 635.667 505.879 628.291V628.408L511.85 528.873L505.879 254.631C505.773 247.277 499.77 241.274 492.48 241.274ZM98.301 719.939C83.901 716.554 80.005 714.745 80.005 709.04C80.005 705.018 83.251 700.856 92.979 700.856C101.291 700.856 107.784 704.229 113.617 710.2L126.719 697.493C118.152 688.542 107.774 683.22 93.64 683.22C75.717 683.22 61.189 693.342 61.189 709.828C61.189 727.729 72.876 733.052 89.607 736.936C106.731 740.821 109.85 743.428 109.85 749.271C109.85 756.147 104.773 759.137 94.023 759.137C85.328 759.137 77.154 756.157 70.79 748.739L57.686 760.426C64.561 770.548 77.812 776.902 92.978 776.902C117.777 776.902 128.675 765.226 128.675 747.974C128.676 728.241 112.711 723.313 98.301 719.939ZM181.891 683.22C157.114 683.22 142.458 702.421 142.458 730.061C142.458 757.702 157.113 776.891 181.891 776.891C206.669 776.891 221.345 757.702 221.345 730.061C221.345 702.421 206.669 683.22 181.891 683.22ZM181.891 758.872C167.236 758.872 161.126 746.281 161.126 730.071C161.126 713.851 167.235 701.26 181.891 701.26C196.568 701.26 202.656 713.851 202.656 730.071C202.656 746.281 196.568 758.872 181.891 758.872ZM294.667 735.648C294.667 750.176 287.515 759.137 275.978 759.137C264.43 759.137 257.426 749.92 257.426 735.393V684.636H239.248V735.649C239.248 762.108 254.053 776.902 275.977 776.902C299.073 776.902 312.834 761.714 312.834 735.394V684.636H294.667V735.648ZM391.2 723.058C391.2 728.124 391.455 739.534 391.455 742.908C390.285 740.566 387.305 736.032 385.101 732.648L352.906 684.626H335.525V775.477H353.438V735.5C353.438 730.435 353.182 719.024 353.182 715.65C354.342 717.981 357.343 722.526 359.536 725.911L392.891 775.476H409.111V684.625H391.199L391.2 723.058ZM460.881 684.636H432.464V775.486H459.571C482.933 775.486 506.04 761.98 506.04 730.061C506.04 696.833 486.829 684.636 460.881 684.636ZM459.571 757.839H450.632V702.293H460.232C479.443 702.293 487.362 711.499 487.362 730.061C487.361 746.675 478.655 757.839 459.571 757.839ZM562.225 701.25C570.399 701.25 575.592 704.89 578.838 711.116L595.707 703.336C589.992 691.532 579.604 683.22 562.479 683.22C538.755 683.22 522.13 702.421 522.13 730.061C522.13 758.734 538.084 776.891 561.829 776.891C578.315 776.891 589.214 769.239 595.44 756.392L580.135 747.303C575.334 755.36 570.524 758.862 562.35 758.862C548.727 758.862 540.809 746.398 540.809 730.061C540.8 713.202 548.612 701.25 562.225 701.25ZM629.606 684.636H611.438V775.486H666.038V757.563H629.606V684.636ZM713.9 683.22C689.102 683.22 674.446 702.421 674.446 730.061C674.446 757.702 689.102 776.891 713.9 776.891C738.677 776.891 753.343 757.702 753.343 730.061C753.344 702.421 738.677 683.22 713.9 683.22ZM713.9 758.872C699.223 758.872 693.135 746.281 693.135 730.071C693.135 713.851 699.223 701.26 713.9 701.26C728.546 701.26 734.643 713.851 734.643 730.071C734.643 746.281 728.546 758.872 713.9 758.872ZM826.654 735.648C826.654 750.176 819.534 759.137 807.986 759.137C796.417 759.137 789.424 749.92 789.424 735.393V684.636H771.257V735.649C771.257 762.108 786.051 776.902 807.986 776.902C831.082 776.902 844.833 761.714 844.833 735.394V684.636H826.654V735.648ZM895.952 684.636H867.545V775.486H894.653C918.025 775.486 941.11 761.98 941.11 730.061C941.11 696.833 921.91 684.636 895.952 684.636ZM894.653 757.839H885.702V702.293H895.313C914.502 702.293 922.42 711.499 922.42 730.061C922.421 746.675 913.725 757.839 894.653 757.839Z" fill="url(#paint0_linear_0_1)"/>
</g>
<defs>
<linearGradient id="paint0_linear_0_1" x1="494.781" y1="212.671" x2="494.781" y2="776.825" gradientUnits="userSpaceOnUse">
<stop stop-color="#9C9C9C"/>
<stop offset="1" stop-color="#9C9C9C"/>
</linearGradient>
<clipPath id="clip0_0_1">
<rect width="989.654" height="989.654" fill="white"/>
</clipPath>
</defs>
</svg>
