<svg width="240" height="240" viewBox="0 0 240 240" fill="none" xmlns="http://www.w3.org/2000/svg">
<rect width="240" height="240" fill="none"/>
<path d="M238.553 52.342C238.553 52.342 231.671 47.015 209.385 38.83C189.83 31.633 174.893 29.98 174.893 29.98L174.967 72.659C174.967 90.698 154.582 109.853 119.768 109.853H118.772C83.962 109.853 63.584 90.698 63.584 72.659L63.652 29.98C63.652 29.98 48.729 31.632 29.166 38.83C6.881 47.015 0 52.342 0 52.342C1.652 86.571 54.826 114.772 119.263 114.787H119.278C183.719 114.772 236.906 86.571 238.553 52.342" fill="#9C9C9C"/>
<path d="M238.582 148.183C238.582 148.183 231.701 153.495 209.415 161.687C189.846 168.885 174.922 170.53 174.922 170.53L174.997 127.858C174.997 109.823 154.611 90.675 119.798 90.675L119.308 90.66H119.293L118.81 90.675C83.9929 90.675 63.6149 109.823 63.6149 127.858L63.6909 170.53C63.6909 170.53 48.7599 168.885 29.1979 161.687C6.91893 153.495 0.0239258 148.183 0.0239258 148.183C1.67593 113.957 54.8639 85.756 119.309 85.734C183.749 85.756 236.938 113.957 238.582 148.183ZM11.6109 209.926C6.17893 209.926 6.08093 205.791 6.08093 204.193V196.665C6.08093 196.196 6.05093 195.593 7.01693 195.593H9.81593C10.7359 195.593 10.6839 196.228 10.6839 196.665V204.193C10.6839 204.736 10.7749 206.171 12.7509 206.171H17.4589C19.3979 206.171 19.5109 204.736 19.5109 204.193V196.665C19.5109 196.227 19.4489 195.593 20.3639 195.593H23.1999C24.2199 195.593 24.1279 196.228 24.1279 196.665V204.193C24.1279 205.794 24.0219 209.926 18.5829 209.926M37.6319 209.006C35.7159 206.426 32.9769 203.182 30.1859 199.74V208.914C30.1859 209.321 30.2839 209.926 29.3259 209.926H26.7079C25.7649 209.926 25.8709 209.322 25.8709 208.914V196.646C25.8709 196.224 25.8329 195.589 26.7079 195.589H31.8149C33.2559 195.589 35.3159 198.486 36.6589 200.417C37.7079 201.866 39.6239 204.068 40.9139 205.729V196.645C40.9139 196.223 40.8609 195.588 41.8119 195.588H44.6559C45.5609 195.588 45.5099 196.223 45.5099 196.645V209.922H40.2669C39.1409 209.926 38.6579 210.002 37.6319 209.006ZM47.2439 209.926V195.607H59.8959C60.6659 195.607 65.8639 195.503 65.8639 200.963C65.8639 206.531 66.4599 209.926 60.0019 209.926H53.1819L51.7109 206.939V209.926M59.2239 206.154C61.5249 206.154 61.3509 203.952 61.3509 202.94C61.3509 199.56 60.3999 199.422 58.8839 199.422H51.6639V206.152L59.2239 206.154ZM70.8129 195.698H82.4769C83.4579 195.698 83.3299 196.344 83.3299 197.538C83.3299 198.654 83.4809 199.288 82.4769 199.288H73.2579C73.0159 199.288 72.1719 199.169 72.1719 200.028C72.1719 200.903 72.0129 201.251 72.9339 201.251H81.0819L82.3949 203.86C82.5829 204.222 82.5609 204.54 81.8439 204.54H73.4079L72.1029 201.989V205.747C72.1029 206.622 72.8799 206.456 73.1059 206.456H82.6799C83.6309 206.456 83.5479 207.12 83.5479 208.206C83.5479 209.368 83.6309 210.018 82.6799 210.018H70.5629C69.5519 210.018 67.5829 209.703 67.5829 206.546V198.655C67.5829 197.825 68.0129 195.698 70.8129 195.698ZM86.4749 195.606H99.2329C100.945 195.606 103.435 195.59 103.435 200.21C103.435 203.228 102.794 203.378 101.42 204.314C103.721 204.707 103.412 207.648 103.412 209.171C103.412 209.942 103.133 209.925 102.906 209.925H99.1639C98.3789 209.925 98.5679 208.689 98.5679 208.04C98.5679 206.29 97.5869 206.364 97.2019 206.364H91.6949C91.1669 205.443 90.1409 203.391 90.1409 203.391V209.336L89.4389 209.924H85.6739L85.2969 209.455V196.842C85.2979 195.954 85.9239 195.606 86.4749 195.606ZM96.6369 199.394H90.9559C90.0049 199.394 90.0509 199.709 90.0509 199.998V202.561H95.8979C98.7349 202.561 98.7349 201.852 98.7349 201.113C98.7339 199.635 98.6139 199.394 96.6369 199.394ZM125.404 195.698C126.34 195.698 127.252 196.12 128.236 198.036C128.9 199.409 133.533 207.784 134.513 209.534V210.016H129.685L128.295 207.496H122.423L121.153 204.613C120.792 205.201 118.853 208.883 118.189 210.014H113.346V209.699C114.334 207.842 121.079 195.695 121.079 195.695M123.896 199.667L121.527 203.966L121.746 204.179H126.137L126.356 203.966L124.116 199.652L123.896 199.667ZM137.576 195.606H150.342C152.047 195.606 154.537 195.59 154.537 200.21C154.537 203.228 153.902 203.378 152.529 204.314C154.84 204.707 154.521 207.648 154.521 209.171C154.521 209.942 154.234 209.925 154.007 209.925H150.265C149.482 209.925 149.677 208.689 149.677 208.04C149.677 206.29 148.697 206.364 148.32 206.364H142.799C142.27 205.443 141.242 203.391 141.242 203.391V209.336L140.551 209.924H136.778L136.401 209.455V196.842C136.4 195.954 137.033 195.606 137.576 195.606ZM147.747 199.394H142.059C141.108 199.394 141.155 199.709 141.155 199.998V202.561H147.009C149.83 202.561 149.83 201.852 149.83 201.113C149.829 199.635 149.725 199.394 147.747 199.394ZM165.688 209.926C164.739 208.146 162.098 203.227 160.317 199.998V208.931C160.317 209.308 160.378 209.926 159.458 209.926H156.878C155.912 209.926 155.987 209.308 155.987 208.931V196.662C155.987 196.224 155.926 195.605 156.878 195.605H161.345C162.009 195.605 162.958 195.455 164.015 197.582C164.816 199.287 166.504 202.834 167.683 204.705C168.859 202.834 170.595 199.287 171.394 197.582C172.435 195.455 173.355 195.605 174.111 195.605H178.562C179.466 195.605 179.361 196.224 179.361 196.662V208.931C179.361 209.308 179.498 209.926 178.562 209.926H175.951C175.001 209.926 175.076 209.308 175.076 208.931V199.998C173.265 203.227 170.654 208.144 169.66 209.926M185.092 209.956C180.867 209.956 181.049 205.431 181.049 202.474C181.049 199.786 180.746 195.578 186.042 195.533H195.458C200.77 195.533 200.422 199.804 200.422 202.474C200.422 205.431 200.635 209.956 196.333 209.956M193.602 206.274C195.746 206.274 195.669 204.056 195.669 202.579C195.669 201.235 195.986 199.152 193.193 199.152H188.457C185.682 199.152 186.012 201.235 186.012 202.579C186.012 204.058 185.876 206.274 188.02 206.274H193.602ZM207.499 209.926C202.082 209.926 201.977 205.791 201.977 204.193V196.665C201.977 196.196 201.948 195.593 202.914 195.593H205.722C206.642 195.593 206.58 196.228 206.58 196.665V204.193C206.58 204.736 206.671 206.171 208.647 206.171H213.354C215.301 206.171 215.407 204.736 215.407 204.193V196.665C215.407 196.227 215.362 195.593 216.266 195.593H219.087C220.113 195.593 220.024 196.228 220.024 196.665V204.193C220.024 205.794 219.932 209.926 214.471 209.926M223.04 195.606H235.807C237.512 195.606 240 195.59 240 200.21C240 203.228 239.352 203.378 237.979 204.314C240.289 204.707 239.987 207.648 239.987 209.171C239.987 209.942 239.7 209.925 239.473 209.925H235.731C234.961 209.925 235.143 208.689 235.143 208.04C235.143 206.29 234.147 206.364 233.77 206.364H228.262C227.735 205.443 226.707 203.391 226.707 203.391V209.336L225.998 209.924H222.24L221.863 209.455V196.842C221.863 195.954 222.497 195.606 223.04 195.606ZM233.195 199.394H227.521C226.57 199.394 226.615 199.709 226.615 199.998V202.561H232.47C235.291 202.561 235.291 201.852 235.291 201.113C235.293 199.635 235.172 199.394 233.195 199.394Z" fill="#9C9C9C"/>
</svg>
