<svg width="3685" height="3685" viewBox="0 0 3685 3685" fill="none" xmlns="http://www.w3.org/2000/svg">
<rect width="3685" height="3685" fill="none"/>
<g clip-path="url(#clip0_0_1)">
<path opacity="0.66" d="M401.348 1467.94C189.948 1467.94 18.3921 1639.48 18.3921 1850.91C18.3921 2062.31 189.948 2233.98 401.348 2233.98C612.76 2233.98 784.437 2062.32 784.437 1850.91C784.437 1639.48 612.76 1467.94 401.348 1467.94ZM401.469 1476.84C403.694 1476.84 405.992 1477.54 407.781 1478.82C409.764 1480.22 411.203 1482.2 412.001 1484.43V1484.55L412.11 1484.67L424.881 1531.01C590.959 1543.07 722.162 1681.76 722.162 1850.91C722.162 1900.82 710.71 1948.15 690.335 1990.31L723.214 2023.43L723.335 2023.55L723.456 2023.66C725.088 2025.56 725.947 2027.76 726.141 2029.99C726.347 2032.24 725.923 2034.61 724.726 2036.64C723.576 2038.66 721.815 2040.26 719.696 2041.21C717.531 2042.21 715.175 2042.45 712.9 2042.03H712.561L667.384 2030.21C609.69 2115.56 511.995 2171.72 401.349 2171.72C290.715 2171.72 193.093 2115.56 135.436 2030.21L90.3921 2042.16H90.0291C87.5021 2042.62 85.1921 2042.11 83.2451 2041.22C81.1332 2040.26 79.3744 2038.66 78.2141 2036.65C77.1141 2034.74 76.5821 2032.35 76.8121 2030.12C77.0301 2027.87 77.8641 2025.69 79.5081 2023.78L79.6171 2023.66L79.738 2023.55L112.509 1990.43C92.0972 1948.23 80.6821 1900.89 80.6821 1850.91C80.6821 1681.71 211.897 1542.96 378.071 1531.02L390.611 1484.8L390.72 1484.56V1484.43C391.51 1482.17 392.985 1480.21 394.94 1478.82C396.958 1477.4 399.232 1476.84 401.469 1476.84ZM401.469 1481.51C400.115 1481.51 398.712 1481.89 397.599 1482.69C396.466 1483.51 395.613 1484.65 395.157 1485.97L367.296 1588.96C366.582 1590.97 366.279 1593.39 366.933 1595.4C367.598 1597.41 368.819 1599.01 370.573 1600.21C375.567 1603.65 377.454 1610.16 379.812 1616.47C382.158 1622.78 382.545 1628.21 380.864 1634.74C379.171 1641.26 375.435 1647.2 370.32 1651.59C361.131 1659.46 352.882 1668.96 347.743 1680.14C342.604 1691.32 340.838 1703.28 340.838 1715.37V1745.09L196.878 1662L180.952 1689.38L340.838 1781.61V1815.08L312.046 1831.71L152.171 1739.35L136.246 1766.99L280.206 1850.09L254.449 1864.96C243.977 1870.98 234.63 1878.55 227.532 1888.59C220.422 1898.64 216.165 1910.54 213.952 1922.41C212.706 1929.04 209.526 1935.25 204.701 1939.97C199.9 1944.69 194.954 1946.92 188.304 1948.03C181.678 1949.14 175.196 1950.98 169.706 1948.4C167.808 1947.5 165.704 1947.24 163.636 1947.68C161.568 1948.11 159.512 1949.24 158.122 1950.84L83.1121 2026.8C82.2171 2027.82 81.59 2029.2 81.467 2030.55C81.334 2031.91 81.6131 2033.11 82.2891 2034.3C82.9661 2035.47 83.9701 2036.54 85.2161 2037.11C86.4586 2037.67 87.843 2037.83 89.1821 2037.58L192.415 2010.19C194.495 2009.83 196.623 2008.83 198.026 2007.26C199.441 2005.69 200.323 2003.76 200.493 2001.65C200.976 1995.58 205.681 1990.82 209.973 1985.62C214.278 1980.44 218.825 1977.35 225.306 1975.55C231.8 1973.74 238.729 1974.14 245.101 1976.38C256.504 1980.39 268.899 1982.67 281.137 1981.53C293.399 1980.39 304.62 1975.98 315.08 1969.93L340.837 1955.05V2121.27H372.566V1936.81L401.467 1920.08L430.271 1936.69V2121.27H462.086V1955.05L487.843 1969.93C498.315 1975.97 509.537 1980.39 521.786 1981.53C534.048 1982.66 546.431 1980.25 557.834 1976.23C564.194 1974.01 571.245 1973.74 577.726 1975.53C584.207 1977.35 588.537 1980.44 592.817 1985.6C597.098 1990.79 601.935 1995.46 602.406 2001.51C602.587 2003.61 603.458 2005.55 604.873 2007.13C606.288 2008.72 608.295 2010.02 610.375 2010.41L713.717 2037.46C715.059 2037.71 716.447 2037.55 717.696 2037C718.941 2036.43 719.933 2035.48 720.61 2034.3C721.282 2033.13 721.569 2031.78 721.432 2030.43C721.299 2029.08 720.791 2027.71 719.896 2026.67L644.633 1950.96C643.266 1949.37 641.307 1948.01 639.252 1947.58C637.172 1947.14 635.067 1947.36 633.169 1948.28C627.667 1950.88 621.21 1949.15 614.57 1948.03C607.92 1946.92 602.973 1944.58 598.174 1939.86C593.361 1935.12 590.169 1928.9 588.924 1922.3C586.711 1910.38 582.587 1898.5 575.477 1888.47C568.355 1878.4 558.802 1870.98 548.318 1864.96L522.694 1850.09L666.654 1766.98L650.74 1739.49L490.866 1831.82L462.061 1815.21V1781.74L621.948 1689.5L606.025 1662L462.064 1745.1V1715.38C462.064 1703.27 460.19 1691.32 455.063 1680.14C449.912 1668.96 441.641 1659.46 432.462 1651.59C427.347 1647.2 423.623 1641.26 421.929 1634.74C420.248 1628.22 420.744 1622.78 423.09 1616.47C425.46 1610.17 427.092 1603.64 432.111 1600.21C433.84 1599 435.207 1597.41 435.847 1595.41C436.512 1593.4 436.56 1590.97 435.847 1588.96L407.527 1485.97C407.079 1484.68 406.295 1483.48 405.193 1482.69C404.117 1481.89 402.835 1481.51 401.469 1481.51ZM401.469 1680.6C409.015 1680.6 416.488 1683.69 421.833 1689.04C427.19 1694.38 430.273 1701.85 430.273 1709.4V1763.48L401.469 1780.09L372.568 1763.36V1709.4C372.568 1701.85 375.651 1694.39 380.985 1689.04C386.329 1683.68 393.911 1680.6 401.469 1680.6ZM401.59 1816.72L430.273 1833.35V1866.81L401.59 1883.44L372.568 1866.69V1833.45L401.59 1816.72ZM312.057 1868.47L340.849 1885.08V1918.55L294.16 1945.47C287.618 1949.24 279.577 1950.24 272.261 1948.29C264.957 1946.32 258.5 1941.36 254.715 1934.83C250.942 1928.3 249.951 1920.25 251.91 1912.94C253.869 1905.61 258.706 1899.26 265.26 1895.5L312.057 1868.47ZM491.001 1868.47L537.702 1895.38C544.232 1899.16 549.19 1905.51 551.161 1912.82C553.132 1920.13 552.019 1928.28 548.234 1934.82C544.463 1941.34 537.967 1946.2 530.676 1948.16C523.372 1950.09 515.451 1949.1 508.909 1945.35L462.087 1918.31V1885.06L491.001 1868.47Z" fill="#9C9C9C"/>
<path d="M866.109 1505.97L1013.64 1956.45V2176.48H1159.19V1956.45L1298.4 1505.97H1166.82L1084.16 1798.71L1003.87 1505.97H866.109ZM1774.71 1505.97V2176.48H1895.78V1741.64L1965.17 2176.49H2056.58L2125.83 1741.64V2176.49H2249.17V1505.97H2064.3L2011.57 1824.93L1960.75 1505.97L1774.71 1505.97ZM2810.77 1505.97V2176.48H2945.72V1893.89H3060.67V2176.49H3192.41V1505.97H3060.67V1772.72H2945.72V1505.97H2810.77ZM3384.13 1505.84L3267.52 2176.46H3399.14L3425.09 2012.65H3525.94L3551.36 2176.46H3684.11L3567.46 1505.84H3384.13ZM3476.61 1652.91L3510.92 1895.52H3440.86L3476.61 1652.91ZM2439 1505.84L2322.39 2176.46H2454L2479.95 2012.65H2580.82L2606.22 2176.46H2738.98L2622.34 1505.84H2439ZM2531.48 1652.91L2565.8 1895.52H2495.72L2531.48 1652.91ZM1403.48 1505.84L1286.86 2176.46H1418.48L1444.42 2012.65H1545.28L1570.69 2176.46H1703.45L1586.82 1505.84H1403.48ZM1495.96 1652.91L1530.29 1895.52H1460.2L1495.96 1652.91Z" fill="#9C9C9C"/>
</g>
<defs>
<clipPath id="clip0_0_1">
<rect width="3684.11" height="3684.11" fill="white"/>
</clipPath>
</defs>
</svg>
